<svg xmlns="http://www.w3.org/2000/svg" width="38" height="38" viewBox="0 0 38 38">
    <g fill="none" fill-rule="evenodd" transform="translate(1 1)">
        <circle cx="18" cy="18" r="18" stroke="#FFF" stroke-width="2"/>
        <path fill="#FFF" d="M23.333 11.417h-2.96A2.132 2.132 0 0 0 18.374 10c-.92 0-1.7.595-1.997 1.417h-2.961A1.42 1.42 0 0 0 12 12.833v11.334c0 .779.637 1.416 1.417 1.416h9.916a1.42 1.42 0 0 0 1.417-1.416V12.833a1.42 1.42 0 0 0-1.417-1.416zm-4.958 0a.71.71 0 0 1 .708.708.71.71 0 0 1-.708.708.71.71 0 0 1-.708-.708.71.71 0 0 1 .708-.708zm4.958 12.75h-9.916V12.833h1.416v2.125h7.084v-2.125h1.416v11.334z"/>
    </g>
</svg>
