<svg xmlns="http://www.w3.org/2000/svg" width="38" height="38" viewBox="0 0 38 38">
    <g fill="none" fill-rule="evenodd" transform="translate(1 1)">
        <circle cx="18" cy="18" r="18" stroke="#FFF" stroke-width="2"/>
        <path fill="#FFF" d="M21.667 20.951c-.591 0-1.12.233-1.525.599l-5.545-3.228c.039-.179.07-.358.07-.544 0-.187-.031-.366-.07-.545l5.483-3.196A2.33 2.33 0 0 0 24 12.334 2.33 2.33 0 0 0 21.667 10a2.33 2.33 0 0 0-2.334 2.333c0 .187.031.366.07.545l-5.483 3.196a2.323 2.323 0 0 0-1.587-.63A2.33 2.33 0 0 0 10 17.778a2.33 2.33 0 0 0 2.333 2.333c.615 0 1.167-.241 1.587-.63l5.538 3.236a2.194 2.194 0 0 0-.062.505 2.274 2.274 0 0 0 2.27 2.271 2.274 2.274 0 0 0 2.272-2.27 2.274 2.274 0 0 0-2.271-2.272z"/>
    </g>
</svg>
